<svg width="100" height="100" viewBox="0 0 100 100" fill="none" xmlns="http://www.w3.org/2000/svg">
<rect width="100" height="100" rx="50" fill="#6C5151"/>
<path d="M58 56.0773L86.275 51L83.3381 59.7039L66.9259 61.0987L69.1718 67.6266L82.5895 66.176L81.8408 74.824L68.4232 75.5494L69.9204 82.0773L83.3381 79.176L81.0922 87.824L60.1883 90L58 56.0773Z" fill="#F8E9E9"/>
<path d="M37.2664 85.6418L22 90L22.7296 51.7264L46.6957 51L52.4768 56.0845L53.2064 66.1977L47.4254 71.9527L43.0475 71.2264L56.125 80.6132L44.5068 87.0946L34.3479 71.9527L37.2664 85.6418ZM33.6182 64.745L44.5068 65.4713L45.2364 58.99L40.8586 56.8109L33.6182 58.2636V64.745Z" fill="#F8E9E9"/>
<path d="M71.9592 11.7273L81 48.7063L68.9637 51L67.4932 38.6923L58.5068 37.1259L56.9818 48.7063L45 49.4336L56.9818 11L71.9592 11.7273ZM59.2693 30.972L66.7307 31.7552L65.2602 17.1538H62.2648L59.2693 30.972Z" fill="#F8E9E9"/>
<path d="M45 21.7362L35.9899 27.766L31.5126 21.017H27.0352L22.5025 30.7532L27.0352 40.4894H34.4975L33.7789 34.5149H45L40.5226 47.2383L19.5176 51L12 30.7532L18.7437 13.4936L35.9899 12L45 21.7362Z" fill="#F8E9E9"/>
</svg>
