<svg width="103" height="34" viewBox="0 0 103 34" fill="none" xmlns="http://www.w3.org/2000/svg">
<path d="M95.4827 22.176L103 20.7998L102.209 23.1737L97.8566 23.5693L98.4586 25.3411L102.002 24.9455L101.813 27.3194L98.2522 27.5086L98.6478 29.2976L102.209 28.5063L101.607 30.8802L96.0847 31.4651L95.4827 22.176Z" fill="#F8E9E9"/>
<path d="M94.6206 31.4651L90.7674 30.691L93.4681 24.137L87.671 31.2759L85.9336 29.1428V21.6255L89.4084 20.8515L87.8602 26.0637L92.2983 20.6622L95.3947 22.5889L94.6206 31.4651Z" fill="#F8E9E9"/>
<path d="M78.0817 20.8687L80.6276 21.4535L80.4384 24.7735L83.1735 25.152L83.3627 21.4535L85.513 21.832L85.9086 31.0178L83.3627 31.4135L83.1735 27.3022L80.2319 26.5281V30.8286L77.4968 31.4135L78.0817 20.8687Z" fill="#F8E9E9"/>
<path d="M69.9683 22.176L77.4855 20.7998L76.6943 23.1737L72.3421 23.5693L72.9442 25.3411L76.4878 24.9455L76.2986 27.3194L72.7378 27.5086L73.1334 29.2976L76.6943 28.5063L76.0922 30.8802L70.5703 31.4651L69.9683 22.176Z" fill="#F8E9E9"/>
<path d="M69.1389 20.6278L67.9003 29.6245L69.7754 30.0373V33.5981L67.6767 33.3917L68.1068 31.7231L61.6216 31.4995L61.828 32.9789L59.523 33.3917V31.7231L59.1101 30.2609L59.523 29.6245L60.5723 28.1623L60.7787 21.4707L69.1389 20.6278ZM62.8773 23.1393L63.0838 27.7494L62.2409 29.418L66.2145 29.6245L66.851 22.7265L62.8773 23.1393Z" fill="#F8E9E9"/>
<path d="M53.8762 25.152L55.8372 21.4019L58.2111 21.2127L59.0024 22.7781H56.6285L55.2523 26.7346L58.2111 31.2759L55.0459 31.4651L53.8762 27.9215L53.6698 31.4651L52.0872 31.2759L51.8979 27.7151H51.5023L50.3154 31.4651L47.1674 31.2759L50.3154 26.5281L48.5436 22.5889L46.1697 23.965V21.4019L48.3371 20.8171L49.9197 21.0063L51.8979 25.5476V20.8171H53.859L53.8762 25.152Z" fill="#F8E9E9"/>
<path d="M40.6647 20.8342L45.1028 21.0235L46.0661 23.3457L45.4985 29.5385L43.3654 31.4651L39.6842 31.2759L38.3424 29.5385L38.136 22.9501L40.6647 20.8342ZM40.8539 28.5579L42.5913 29.332L43.5546 22.9501L40.6647 23.5349L40.8539 28.5579Z" fill="#F8E9E9"/>
<path d="M27.8147 22.434L30.4982 21.0923L32.2356 24.3607L34.3514 20.8859L37.9983 21.0923L33.7666 25.8917L37.809 28.9708L34.7299 31.4651L32.2356 27.4226L30.4982 31.0867L26.4729 29.5385L30.8938 26.0809L27.8147 22.434Z" fill="#F8E9E9"/>
<path d="M20.9503 20.8342L25.3884 21.0235L26.3518 23.3457L25.7841 29.5385L23.651 31.4651L19.9698 31.2759L18.6281 29.5385L18.4216 22.9501L20.9503 20.8342ZM21.1395 28.5579L22.877 29.332L23.8403 22.9501L20.9503 23.5349L21.1395 28.5579Z" fill="#F8E9E9"/>
<path d="M16.576 20.7654L18.3478 22.1588L18.1585 25.9088L15.9739 27.113L13.2044 26.3217L14.2021 30.2782L9.83276 31.4651L10.2284 20.9719L16.576 20.7654ZM13.2044 24.3263L16.3695 24.7219L16.576 23.1393L15.5782 22.1588L13.2044 22.5545V24.3263Z" fill="#F8E9E9"/>
<path d="M3.73284 31.0351L0 31.4651L0.877303 20.9547L8.99666 20.5074L9.20308 24.894L9.87396 31.4651H6.58837L6.7948 22.2621L4.16289 22.0384L3.73284 31.0351Z" fill="#F8E9E9"/>
<path d="M99.0892 2.83414L102.816 17.7401L97.8558 18.6849L97.2259 13.6987L93.4994 13.0951L92.8696 17.7401L87.9097 18.0551L92.8696 2.51923L99.0892 2.83414ZM93.8143 10.6021L96.911 10.917L96.3074 5.01231H95.0478L93.8143 10.6021Z" fill="#F8E9E9"/>
<path d="M84.5265 2.36194L87.2295 4.48762L86.9409 10.2086L83.608 12.0456L79.3829 10.8384L80.905 16.8743L74.2393 18.6851L74.8428 2.67685L84.5265 2.36194ZM79.3829 7.79423L84.2116 8.39782L84.5265 5.98347L83.0044 4.48762L79.3829 5.09121V7.79423Z" fill="#F8E9E9"/>
<path d="M60.313 4.51381L71.7812 2.41437L70.574 6.0359L63.9345 6.63949L64.853 9.34251L70.2591 8.73892L69.9704 12.3605L64.5381 12.6491L65.1417 15.3784L70.574 14.1712L69.6555 17.7928L61.2315 18.685L60.313 4.51381Z" fill="#F8E9E9"/>
<path d="M43.6034 18.2651L34.4184 17.6353L33.1587 2.44061L38.2236 3.07044L38.8534 16.0345L42.9736 15.7196L42.6586 2.75553L42.3175 2.44061H47.0675L46.7526 16.0345H50.5578L51.5025 3.07044L56.5674 2.75553L55.3078 15.0897L57.8533 15.7196L57.5122 19.2099L54.6779 19.5248L54.9928 17.9502L43.6034 18.58V18.2651Z" fill="#F8E9E9"/>
<path d="M19.3118 4.51381L30.7799 2.41437L29.5728 6.0359L22.9333 6.63949L23.8518 9.34251L29.2579 8.73892L28.9692 12.3605L23.5369 12.6491L24.1405 15.3784L29.5728 14.1712L28.6543 17.7928L20.2303 18.685L19.3118 4.51381Z" fill="#F8E9E9"/>
<path d="M6.3508 17.9502L0 18.685L1.49585 0.761046L15.3259 0L15.6933 7.47925L16.8217 18.685H11.232L11.5994 2.9917L7.11184 2.6243L6.3508 17.9502Z" fill="#F8E9E9"/>
</svg>
