<svg width="146" height="48" viewBox="0 0 146 48" fill="none" xmlns="http://www.w3.org/2000/svg">
<path d="M135.024 31.3595L145.655 29.4135L144.536 32.7704L138.381 33.3299L139.233 35.8355L144.244 35.276L143.976 38.6329L138.941 38.9005L139.5 41.4304L144.536 40.3114L143.684 43.6683L135.876 44.4954L135.024 31.3595Z" fill="#F8E9E9"/>
<path d="M133.805 44.4955L128.356 43.4008L132.175 34.1327L123.977 44.2279L121.521 41.2115V30.5811L126.434 29.4865L124.245 36.8572L130.521 29.2189L134.9 31.9434L133.805 44.4955Z" fill="#F8E9E9"/>
<path d="M110.417 29.5107L114.017 30.3378L113.75 35.0327L117.618 35.5679L117.885 30.3378L120.926 30.873L121.485 43.8629L117.885 44.4224L117.618 38.6086L113.458 37.5139V43.5954L109.59 44.4224L110.417 29.5107Z" fill="#F8E9E9"/>
<path d="M98.9436 31.3595L109.574 29.4135L108.455 32.7704L102.301 33.3299L103.152 35.8355L108.163 35.276L107.895 38.6329L102.86 38.9005L103.42 41.4304L108.455 40.3114L107.604 43.6683L99.795 44.4954L98.9436 31.3595Z" fill="#F8E9E9"/>
<path d="M97.7708 29.1702L96.0193 41.8926L98.6708 42.4764V47.5119L95.7031 47.2199L96.3112 44.8603L87.1404 44.5441L87.4323 46.6361L84.1727 47.2199V44.8603L83.5889 42.7927L84.1727 41.8926L85.6566 39.8249L85.9485 30.3622L97.7708 29.1702ZM88.9162 32.7218L89.2081 39.2411L88.0162 41.6007L93.6354 41.8926L94.5355 32.138L88.9162 32.7218Z" fill="#F8E9E9"/>
<path d="M76.1875 35.568L78.9606 30.2649L82.3176 29.9974L83.4366 32.211H80.0796L78.1336 37.8059L82.3176 44.2279L77.8416 44.4955L76.1875 39.4844L75.8956 44.4955L73.6576 44.2279L73.39 39.1925H72.8305L71.1521 44.4955L66.7004 44.2279L71.1521 37.514L68.6465 31.9434L65.2896 33.8895V30.2649L68.3546 29.4379L70.5926 29.7054L73.39 36.1275V29.4379H76.1632L76.1875 35.568Z" fill="#F8E9E9"/>
<path d="M57.5048 29.4621L63.7809 29.7297L65.1431 33.0137L64.3404 41.7709L61.324 44.4954L56.1183 44.2278L54.2209 41.7709L53.929 32.4542L57.5048 29.4621ZM57.7724 40.3844L60.2293 41.479L61.5916 32.4542L57.5048 33.2812L57.7724 40.3844Z" fill="#F8E9E9"/>
<path d="M39.3332 31.7244L43.128 29.827L45.5849 34.4489L48.577 29.5351L53.7341 29.827L47.7499 36.6139L53.4665 40.9682L49.1122 44.4954L45.5849 38.7789L43.128 43.9603L37.4358 41.771L43.6875 36.8815L39.3332 31.7244Z" fill="#F8E9E9"/>
<path d="M29.6262 29.4621L35.9022 29.7297L37.2645 33.0137L36.4617 41.7709L33.4453 44.4954L28.2396 44.2278L26.3422 41.7709L26.0503 32.4542L29.6262 29.4621ZM29.8938 40.3844L32.3507 41.479L33.7129 32.4542L29.6262 33.2812L29.8938 40.3844Z" fill="#F8E9E9"/>
<path d="M23.4405 29.3648L25.946 31.3352L25.6785 36.6382L22.5891 38.341L18.6726 37.222L20.0835 42.817L13.9048 44.4954L14.4643 29.6567L23.4405 29.3648ZM18.6726 34.4002L23.1486 34.9597L23.4405 32.7218L22.0296 31.3352L18.6726 31.8947V34.4002Z" fill="#F8E9E9"/>
<path d="M5.27869 43.8874L0 44.4955L1.24061 29.6325L12.7224 29L13.0143 35.2031L13.963 44.4955H9.31677L9.60868 31.4812L5.88683 31.165L5.27869 43.8874Z" fill="#F8E9E9"/>
<path d="M140.124 4.00789L145.394 25.0868L138.38 26.4228L137.49 19.3718L132.22 18.5182L131.329 25.0868L124.315 25.5321L131.329 3.56256L140.124 4.00789ZM132.665 14.9927L137.044 15.438L136.191 7.08809H134.409L132.665 14.9927Z" fill="#F8E9E9"/>
<path d="M119.531 3.34009L123.353 6.34606L122.945 14.4362L118.232 17.034L112.257 15.3269L114.41 23.8623L104.983 26.423L105.837 3.78542L119.531 3.34009ZM112.257 11.022L119.085 11.8756L119.531 8.46137L117.378 6.34606L112.257 7.19961V11.022Z" fill="#F8E9E9"/>
<path d="M85.29 6.38311L101.507 3.41425L99.8004 8.53553L90.4113 9.38908L91.7102 13.2115L99.355 12.3579L98.9468 17.4792L91.2649 17.8874L92.1184 21.747L99.8004 20.0399L98.5015 25.1612L86.5889 26.4229L85.29 6.38311Z" fill="#F8E9E9"/>
<path d="M61.6607 25.8292L48.6719 24.9385L46.8906 3.45135L54.053 4.34201L54.9437 22.6747L60.7701 22.2294L60.3247 3.89668L59.8423 3.45135H66.5593L66.114 22.6747H71.4951L72.8311 4.34201L79.9934 3.89668L78.2121 21.3387L81.8119 22.2294L81.3294 27.1651L77.3215 27.6105L77.7668 25.3838L61.6607 26.2745V25.8292Z" fill="#F8E9E9"/>
<path d="M27.3093 6.38311L43.5267 3.41425L41.8196 8.53553L32.4306 9.38908L33.7295 13.2115L41.3743 12.3579L40.9661 17.4792L33.2842 17.8874L34.1377 21.747L41.8196 20.0399L40.5208 25.1612L28.6082 26.4229L27.3093 6.38311Z" fill="#F8E9E9"/>
<path d="M8.98081 25.3838L0 26.4229L2.11531 1.07621L21.6727 0L22.1922 10.5766L23.788 26.4229H15.8834L16.403 4.23063L10.057 3.71108L8.98081 25.3838Z" fill="#F8E9E9"/>
</svg>
